<svg 
 xmlns="http://www.w3.org/2000/svg"
 xmlns:xlink="http://www.w3.org/1999/xlink"
 width="70px" height="70px">
<defs>
<linearGradient id="PSgrad_0" x1="0%" x2="0%" y1="100%" y2="0%">
  <stop offset="0%" stop-color="rgb(235,28,42)" stop-opacity="1" />
  <stop offset="100%" stop-color="rgb(255,122,75)" stop-opacity="1" />
</linearGradient>

</defs>
<path fill-rule="evenodd"  fill="rgb(255, 255, 255)"
 d="M35.044,19.794 L66.522,19.794 C61.520,9.407 51.728,2.155 40.344,0.407 C28.959,-1.341 17.446,2.639 9.565,11.048 L20.485,30.114 C22.637,23.913 28.487,19.767 35.044,19.794 L35.044,19.794 ZM25.027,35.158 C25.027,39.214 27.468,42.871 31.211,44.423 C34.954,45.976 39.263,45.118 42.127,42.249 C44.992,39.381 45.849,35.067 44.299,31.320 C42.748,27.573 39.096,25.129 35.044,25.129 C32.363,25.090 29.777,26.130 27.867,28.014 C25.957,29.900 24.881,32.473 24.881,35.158 L25.027,35.158 ZM37.956,50.201 C31.725,51.503 25.341,48.796 21.941,43.409 L5.925,15.538 C-0.562,25.218 -1.807,37.497 2.605,48.284 C7.017,59.072 16.505,66.951 27.910,69.297 L27.153,68.830 L37.956,50.201 ZM68.531,25.100 L46.488,25.100 C50.907,30.168 51.487,37.536 47.915,43.234 L32.540,69.996 L35.044,69.996 C46.065,69.998 56.441,64.794 63.039,55.956 C69.637,47.118 71.683,35.682 68.560,25.100 L68.531,25.100 Z"/>
<path fill="url(#PSgrad_0)"
 d="M35.044,19.794 L66.522,19.794 C61.520,9.407 51.728,2.155 40.344,0.407 C28.959,-1.341 17.446,2.639 9.565,11.048 L20.485,30.114 C22.637,23.913 28.487,19.767 35.044,19.794 L35.044,19.794 ZM25.027,35.158 C25.027,39.214 27.468,42.871 31.211,44.423 C34.954,45.976 39.263,45.118 42.127,42.249 C44.992,39.381 45.849,35.067 44.299,31.320 C42.748,27.573 39.096,25.129 35.044,25.129 C32.363,25.090 29.777,26.130 27.867,28.014 C25.957,29.900 24.881,32.473 24.881,35.158 L25.027,35.158 ZM37.956,50.201 C31.725,51.503 25.341,48.796 21.941,43.409 L5.925,15.538 C-0.562,25.218 -1.807,37.497 2.605,48.284 C7.017,59.072 16.505,66.951 27.910,69.297 L27.153,68.830 L37.956,50.201 ZM68.531,25.100 L46.488,25.100 C50.907,30.168 51.487,37.536 47.915,43.234 L32.540,69.996 L35.044,69.996 C46.065,69.998 56.441,64.794 63.039,55.956 C69.637,47.118 71.683,35.682 68.560,25.100 L68.531,25.100 Z"/>
</svg>
