<svg 
 xmlns="http://www.w3.org/2000/svg"
 xmlns:xlink="http://www.w3.org/1999/xlink"
 width="70px" height="58px">
<defs>
<linearGradient id="PSgrad_0" x1="0%" x2="0%" y1="100%" y2="0%">
  <stop offset="0%" stop-color="rgb(235,28,42)" stop-opacity="1" />
  <stop offset="100%" stop-color="rgb(255,122,75)" stop-opacity="1" />
</linearGradient>

</defs>
<path fill-rule="evenodd"  fill="rgb(255, 255, 255)"
 d="M69.999,7.604 C68.865,9.979 66.909,11.668 64.939,13.264 C63.727,14.245 63.429,15.259 63.351,16.739 C62.455,33.674 55.017,46.744 39.363,54.004 C26.347,60.041 13.210,59.091 0.610,52.084 C0.357,51.945 0.018,51.865 0.000,51.283 C5.116,51.642 10.076,50.991 14.761,48.855 C16.684,47.979 18.582,47.041 20.495,45.392 C19.538,45.203 18.849,45.083 18.170,44.927 C13.403,43.845 9.988,41.084 7.860,36.707 C7.350,35.660 7.369,35.112 8.802,35.234 C10.137,35.349 11.490,35.259 12.920,35.047 C6.342,32.436 2.487,27.978 2.156,20.629 C4.228,21.240 5.972,22.161 8.289,22.114 C5.297,19.585 3.265,16.761 2.567,13.129 C1.884,9.582 2.307,6.233 4.265,2.897 C6.989,5.924 9.750,8.614 12.969,10.801 C18.885,14.821 25.417,17.116 32.512,17.916 C33.724,18.052 34.321,17.975 34.152,16.426 C33.488,10.326 35.839,5.493 41.057,2.336 C46.352,-0.865 51.949,-0.810 56.926,2.859 C59.286,4.600 61.176,4.675 63.542,3.613 C65.079,2.924 66.631,2.275 68.622,1.419 C67.404,4.708 65.603,7.069 62.671,9.047 C65.411,9.064 67.569,7.913 69.872,7.474 L69.999,7.604 Z"/>
<path fill="url(#PSgrad_0)"
 d="M69.999,7.604 C68.865,9.979 66.909,11.668 64.939,13.264 C63.727,14.245 63.429,15.259 63.351,16.739 C62.455,33.674 55.017,46.744 39.363,54.004 C26.347,60.041 13.210,59.091 0.610,52.084 C0.357,51.945 0.018,51.865 0.000,51.283 C5.116,51.642 10.076,50.991 14.761,48.855 C16.684,47.979 18.582,47.041 20.495,45.392 C19.538,45.203 18.849,45.083 18.170,44.927 C13.403,43.845 9.988,41.084 7.860,36.707 C7.350,35.660 7.369,35.112 8.802,35.234 C10.137,35.349 11.490,35.259 12.920,35.047 C6.342,32.436 2.487,27.978 2.156,20.629 C4.228,21.240 5.972,22.161 8.289,22.114 C5.297,19.585 3.265,16.761 2.567,13.129 C1.884,9.582 2.307,6.233 4.265,2.897 C6.989,5.924 9.750,8.614 12.969,10.801 C18.885,14.821 25.417,17.116 32.512,17.916 C33.724,18.052 34.321,17.975 34.152,16.426 C33.488,10.326 35.839,5.493 41.057,2.336 C46.352,-0.865 51.949,-0.810 56.926,2.859 C59.286,4.600 61.176,4.675 63.542,3.613 C65.079,2.924 66.631,2.275 68.622,1.419 C67.404,4.708 65.603,7.069 62.671,9.047 C65.411,9.064 67.569,7.913 69.872,7.474 L69.999,7.604 Z"/>
</svg>
