<svg 
 xmlns="http://www.w3.org/2000/svg"
 xmlns:xlink="http://www.w3.org/1999/xlink"
 width="34px" height="71px">
<defs>
<linearGradient id="PSgrad_0" x1="0%" x2="0%" y1="100%" y2="0%">
  <stop offset="0%" stop-color="rgb(235,28,42)" stop-opacity="1" />
  <stop offset="100%" stop-color="rgb(255,122,75)" stop-opacity="1" />
</linearGradient>

</defs>
<path fill-rule="evenodd"  fill="rgb(255, 255, 255)"
 d="M26.154,11.712 L34.000,11.712 L34.000,-0.000 L23.974,-0.000 L23.974,0.049 C10.810,0.508 8.106,7.835 7.872,15.531 L7.845,15.531 L7.845,23.667 L-0.000,23.667 L-0.000,35.380 L7.845,35.380 L7.845,71.000 L21.921,71.000 L21.921,35.380 L32.005,35.380 L34.000,23.667 L21.921,23.667 L21.921,16.395 C21.921,13.808 23.664,11.712 26.154,11.712 L26.154,11.712 Z"/>
<path fill="url(#PSgrad_0)"
 d="M26.154,11.712 L34.000,11.712 L34.000,-0.000 L23.974,-0.000 L23.974,0.049 C10.810,0.508 8.106,7.835 7.872,15.531 L7.845,15.531 L7.845,23.667 L-0.000,23.667 L-0.000,35.380 L7.845,35.380 L7.845,71.000 L21.921,71.000 L21.921,35.380 L32.005,35.380 L34.000,23.667 L21.921,23.667 L21.921,16.395 C21.921,13.808 23.664,11.712 26.154,11.712 L26.154,11.712 Z"/>
</svg>
