<svg 
 xmlns="http://www.w3.org/2000/svg"
 xmlns:xlink="http://www.w3.org/1999/xlink"
 width="60px" height="59px">
<defs>
<linearGradient id="PSgrad_0" x1="0%" x2="0%" y1="100%" y2="0%">
  <stop offset="0%" stop-color="rgb(235,28,42)" stop-opacity="1" />
  <stop offset="100%" stop-color="rgb(255,122,75)" stop-opacity="1" />
</linearGradient>

</defs>
<path fill-rule="evenodd"  fill="rgb(255, 255, 255)"
 d="M0.397,59.000 L13.642,59.000 L13.642,19.667 L0.397,19.667 L0.397,59.000 ZM7.036,-0.000 C3.149,-0.000 -0.000,2.934 -0.000,6.555 C-0.000,10.177 3.149,13.111 7.036,13.111 C10.924,13.111 14.073,10.177 14.073,6.555 C14.073,2.934 10.924,-0.000 7.036,-0.000 M60.000,43.168 C60.000,41.071 59.993,38.973 59.987,36.875 C59.977,33.256 59.427,29.736 57.613,26.511 C56.119,23.773 53.655,21.680 50.695,20.633 C48.103,19.693 45.424,19.473 42.702,19.824 C39.901,20.184 37.444,21.286 35.473,23.308 C34.712,24.092 34.030,24.954 33.262,25.839 L33.262,25.337 L33.258,23.338 L33.258,23.105 C33.258,22.449 33.258,21.794 33.272,21.138 C33.272,21.040 33.272,20.961 33.258,20.892 L33.258,20.574 L32.887,20.574 C32.823,20.567 32.757,20.564 32.692,20.565 L28.516,20.574 L20.265,20.574 L20.265,59.000 L33.258,59.000 L33.258,58.944 L33.262,58.944 L33.262,58.272 C33.262,51.487 33.248,44.699 33.275,37.911 C33.278,36.878 33.292,35.797 33.586,34.820 C34.381,32.188 36.742,29.985 39.878,29.779 C42.904,29.582 45.235,30.962 46.252,33.777 C46.841,35.393 46.957,37.078 46.957,38.776 L46.957,58.957 L47.007,58.957 L47.007,59.000 L60.000,59.000 L60.000,43.168 Z"/>
<path fill="url(#PSgrad_0)"
 d="M0.397,59.000 L13.642,59.000 L13.642,19.667 L0.397,19.667 L0.397,59.000 ZM7.036,-0.000 C3.149,-0.000 -0.000,2.934 -0.000,6.555 C-0.000,10.177 3.149,13.111 7.036,13.111 C10.924,13.111 14.073,10.177 14.073,6.555 C14.073,2.934 10.924,-0.000 7.036,-0.000 M60.000,43.168 C60.000,41.071 59.993,38.973 59.987,36.875 C59.977,33.256 59.427,29.736 57.613,26.511 C56.119,23.773 53.655,21.680 50.695,20.633 C48.103,19.693 45.424,19.473 42.702,19.824 C39.901,20.184 37.444,21.286 35.473,23.308 C34.712,24.092 34.030,24.954 33.262,25.839 L33.262,25.337 L33.258,23.338 L33.258,23.105 C33.258,22.449 33.258,21.794 33.272,21.138 C33.272,21.040 33.272,20.961 33.258,20.892 L33.258,20.574 L32.887,20.574 C32.823,20.567 32.757,20.564 32.692,20.565 L28.516,20.574 L20.265,20.574 L20.265,59.000 L33.258,59.000 L33.258,58.944 L33.262,58.944 L33.262,58.272 C33.262,51.487 33.248,44.699 33.275,37.911 C33.278,36.878 33.292,35.797 33.586,34.820 C34.381,32.188 36.742,29.985 39.878,29.779 C42.904,29.582 45.235,30.962 46.252,33.777 C46.841,35.393 46.957,37.078 46.957,38.776 L46.957,58.957 L47.007,58.957 L47.007,59.000 L60.000,59.000 L60.000,43.168 Z"/>
</svg>
