<svg 
 xmlns="http://www.w3.org/2000/svg"
 xmlns:xlink="http://www.w3.org/1999/xlink"
 width="69px" height="54px">
<defs>
<linearGradient id="PSgrad_0" x1="0%" x2="0%" y1="100%" y2="0%">
  <stop offset="0%" stop-color="rgb(235,28,42)" stop-opacity="1" />
  <stop offset="100%" stop-color="rgb(255,122,75)" stop-opacity="1" />
</linearGradient>

</defs>
<path fill-rule="evenodd"  fill="rgb(255, 255, 255)"
 d="M41.565,35.123 C39.702,36.993 37.218,38.032 34.562,38.032 C31.905,38.032 29.422,36.993 27.559,35.123 L0.133,7.586 L0.133,6.269 C0.133,2.805 2.927,-0.000 6.377,-0.000 L62.712,-0.000 C66.162,-0.000 68.990,2.840 68.990,6.269 L68.990,7.586 L41.565,35.123 ZM-0.005,40.768 L-0.005,11.915 L14.967,26.983 L-0.005,40.768 ZM68.921,11.915 L68.921,40.665 L53.984,26.913 L68.921,11.915 ZM25.282,37.235 C27.731,39.729 31.008,41.080 34.493,41.080 C37.942,41.080 41.254,39.695 43.704,37.235 L51.707,29.199 L68.887,44.994 L68.887,47.730 C68.887,51.194 66.093,54.000 62.643,54.000 L6.308,54.000 C2.858,54.000 0.064,51.160 0.064,47.696 L0.064,45.029 L17.279,29.199 L25.282,37.235 Z"/>
<path fill="url(#PSgrad_0)"
 d="M41.565,35.123 C39.702,36.993 37.218,38.032 34.562,38.032 C31.905,38.032 29.422,36.993 27.559,35.123 L0.133,7.586 L0.133,6.269 C0.133,2.805 2.927,-0.000 6.377,-0.000 L62.712,-0.000 C66.162,-0.000 68.990,2.840 68.990,6.269 L68.990,7.586 L41.565,35.123 ZM-0.005,40.768 L-0.005,11.915 L14.967,26.983 L-0.005,40.768 ZM68.921,11.915 L68.921,40.665 L53.984,26.913 L68.921,11.915 ZM25.282,37.235 C27.731,39.729 31.008,41.080 34.493,41.080 C37.942,41.080 41.254,39.695 43.704,37.235 L51.707,29.199 L68.887,44.994 L68.887,47.730 C68.887,51.194 66.093,54.000 62.643,54.000 L6.308,54.000 C2.858,54.000 0.064,51.160 0.064,47.696 L0.064,45.029 L17.279,29.199 L25.282,37.235 Z"/>
</svg>
