<svg 
 xmlns="http://www.w3.org/2000/svg"
 xmlns:xlink="http://www.w3.org/1999/xlink"
 width="57px" height="68px">
<defs>
<linearGradient id="PSgrad_0" x1="0%" x2="0%" y1="100%" y2="0%">
  <stop offset="0%" stop-color="rgb(235,28,42)" stop-opacity="1" />
  <stop offset="100%" stop-color="rgb(255,122,75)" stop-opacity="1" />
</linearGradient>

</defs>
<path fill-rule="evenodd"  fill="rgb(255, 255, 255)"
 d="M55.020,42.587 C53.665,38.218 52.108,34.546 49.713,28.537 C50.085,12.754 43.551,-0.012 28.502,-0.012 C13.284,-0.012 6.894,13.008 7.300,28.537 C4.896,34.555 3.347,38.201 1.993,42.587 C-0.885,51.893 0.046,55.744 0.757,55.829 C2.281,56.016 6.691,48.825 6.691,48.825 C6.691,52.990 8.824,58.421 13.445,62.339 C11.210,63.028 6.191,64.880 7.385,66.912 C8.350,68.552 23.991,67.957 28.502,67.447 C33.013,67.957 48.655,68.552 49.619,66.912 C50.813,64.889 45.785,63.028 43.559,62.339 C48.181,58.413 50.314,52.981 50.314,48.825 C50.314,48.825 54.723,56.016 56.247,55.829 C56.966,55.735 57.897,51.885 55.020,42.587 L55.020,42.587 Z"/>
<path fill="url(#PSgrad_0)"
 d="M55.020,42.587 C53.665,38.218 52.108,34.546 49.713,28.537 C50.085,12.754 43.551,-0.012 28.502,-0.012 C13.284,-0.012 6.894,13.008 7.300,28.537 C4.896,34.555 3.347,38.201 1.993,42.587 C-0.885,51.893 0.046,55.744 0.757,55.829 C2.281,56.016 6.691,48.825 6.691,48.825 C6.691,52.990 8.824,58.421 13.445,62.339 C11.210,63.028 6.191,64.880 7.385,66.912 C8.350,68.552 23.991,67.957 28.502,67.447 C33.013,67.957 48.655,68.552 49.619,66.912 C50.813,64.889 45.785,63.028 43.559,62.339 C48.181,58.413 50.314,52.981 50.314,48.825 C50.314,48.825 54.723,56.016 56.247,55.829 C56.966,55.735 57.897,51.885 55.020,42.587 L55.020,42.587 Z"/>
</svg>
