<svg 
 xmlns="http://www.w3.org/2000/svg"
 xmlns:xlink="http://www.w3.org/1999/xlink"
 width="76px" height="62px">
<defs>
<linearGradient id="PSgrad_0" x1="0%" x2="0%" y1="100%" y2="0%">
  <stop offset="0%" stop-color="rgb(235,28,42)" stop-opacity="1" />
  <stop offset="100%" stop-color="rgb(255,122,75)" stop-opacity="1" />
</linearGradient>

</defs>
<path fill-rule="evenodd"  fill="rgb(255, 255, 255)"
 d="M51.449,18.758 C52.322,18.758 53.184,18.822 54.040,18.918 C51.712,8.063 40.125,-0.002 26.899,-0.002 C12.113,-0.002 -0.000,10.092 -0.000,22.910 C-0.000,30.309 4.030,36.385 10.764,41.097 L8.073,49.201 L17.477,44.478 C20.841,45.145 23.541,45.830 26.899,45.830 C27.743,45.830 28.580,45.789 29.410,45.724 C28.884,43.922 28.580,42.036 28.580,40.079 C28.580,28.309 38.672,18.758 51.449,18.758 L51.449,18.758 ZM36.986,11.454 C39.012,11.454 40.354,12.789 40.354,14.815 C40.354,16.834 39.012,18.187 36.986,18.187 C34.970,18.187 32.947,16.834 32.947,14.815 C32.947,12.788 34.970,11.454 36.986,11.454 L36.986,11.454 ZM18.161,18.187 C16.145,18.187 14.110,16.834 14.110,14.815 C14.110,12.788 16.145,11.454 18.161,11.454 C20.177,11.454 21.518,12.788 21.518,14.815 C21.518,16.834 20.177,18.187 18.161,18.187 L18.161,18.187 ZM76.000,39.755 C76.000,28.984 65.239,20.205 53.152,20.205 C40.354,20.205 30.273,28.984 30.273,39.755 C30.273,50.544 40.354,59.305 53.152,59.305 C55.830,59.305 58.533,58.628 61.223,57.953 L68.601,61.999 L66.578,55.267 C71.977,51.211 76.000,45.831 76.000,39.755 L76.000,39.755 ZM45.734,36.384 C44.395,36.384 43.043,35.050 43.043,33.688 C43.043,32.346 44.395,30.994 45.734,30.994 C47.769,30.994 49.101,32.346 49.101,33.688 C49.101,35.050 47.769,36.384 45.734,36.384 L45.734,36.384 ZM60.530,36.384 C59.200,36.384 57.858,35.050 57.858,33.688 C57.858,32.346 59.200,30.994 60.530,30.994 C62.546,30.994 63.897,32.346 63.897,33.688 C63.897,35.050 62.546,36.384 60.530,36.384 L60.530,36.384 Z"/>
<path fill="url(#PSgrad_0)"
 d="M51.449,18.758 C52.322,18.758 53.184,18.822 54.040,18.918 C51.712,8.063 40.125,-0.002 26.899,-0.002 C12.113,-0.002 -0.000,10.092 -0.000,22.910 C-0.000,30.309 4.030,36.385 10.764,41.097 L8.073,49.201 L17.477,44.478 C20.841,45.145 23.541,45.830 26.899,45.830 C27.743,45.830 28.580,45.789 29.410,45.724 C28.884,43.922 28.580,42.036 28.580,40.079 C28.580,28.309 38.672,18.758 51.449,18.758 L51.449,18.758 ZM36.986,11.454 C39.012,11.454 40.354,12.789 40.354,14.815 C40.354,16.834 39.012,18.187 36.986,18.187 C34.970,18.187 32.947,16.834 32.947,14.815 C32.947,12.788 34.970,11.454 36.986,11.454 L36.986,11.454 ZM18.161,18.187 C16.145,18.187 14.110,16.834 14.110,14.815 C14.110,12.788 16.145,11.454 18.161,11.454 C20.177,11.454 21.518,12.788 21.518,14.815 C21.518,16.834 20.177,18.187 18.161,18.187 L18.161,18.187 ZM76.000,39.755 C76.000,28.984 65.239,20.205 53.152,20.205 C40.354,20.205 30.273,28.984 30.273,39.755 C30.273,50.544 40.354,59.305 53.152,59.305 C55.830,59.305 58.533,58.628 61.223,57.953 L68.601,61.999 L66.578,55.267 C71.977,51.211 76.000,45.831 76.000,39.755 L76.000,39.755 ZM45.734,36.384 C44.395,36.384 43.043,35.050 43.043,33.688 C43.043,32.346 44.395,30.994 45.734,30.994 C47.769,30.994 49.101,32.346 49.101,33.688 C49.101,35.050 47.769,36.384 45.734,36.384 L45.734,36.384 ZM60.530,36.384 C59.200,36.384 57.858,35.050 57.858,33.688 C57.858,32.346 59.200,30.994 60.530,30.994 C62.546,30.994 63.897,32.346 63.897,33.688 C63.897,35.050 62.546,36.384 60.530,36.384 L60.530,36.384 Z"/>
</svg>
